<svg width="220" height="220" viewBox="0 0 220 220" fill="none" xmlns="http://www.w3.org/2000/svg"><defs><linearGradient id="g1" x1="28" y1="28" x2="188" y2="192" gradientUnits="userSpaceOnUse"><stop stop-color="#5D8CFF"/><stop offset="0.5" stop-color="#8EE7FF"/><stop offset="1" stop-color="#9D7FFF"/></linearGradient><linearGradient id="g2" x1="60" y1="42" x2="165" y2="176" gradientUnits="userSpaceOnUse"><stop stop-color="#DCEBFF"/><stop offset="1" stop-color="#FFFFFF"/></linearGradient><filter id="shadow" x="0" y="0" width="220" height="220" filterUnits="userSpaceOnUse"><feDropShadow dx="0" dy="18" stdDeviation="18" flood-color="#7FA8FF" flood-opacity="0.25"/></filter></defs><g filter="url(#shadow)"><path d="M110 18L188 64V156L110 202L32 156V64L110 18Z" fill="url(#g1)" fill-opacity="0.2"/><path d="M110 36L172 72V148L110 184L48 148V72L110 36Z" fill="url(#g2)" fill-opacity="0.85" stroke="url(#g1)" stroke-width="3"/><path d="M78 78H138C148 78 156 86 156 96C156 106 148 114 138 114H96V132H136" stroke="url(#g1)" stroke-width="14" stroke-linecap="round" stroke-linejoin="round"/><path d="M96 132C96 144 86 154 74 154H58" stroke="url(#g1)" stroke-width="14" stroke-linecap="round" stroke-linejoin="round"/><circle cx="158" cy="61" r="7" fill="#8EE7FF"/><circle cx="57" cy="161" r="7" fill="#9D7FFF"/></g></svg>